{"title":"Game of Thrones S04E04 HDTV x264 AAC E-Subs [GWC].mp4","uid":10056367,"size":141091493,"categoryP":"video","categoryS":"tv_shows","magnet":"?xt=urn:btih:f4c85f9f9652e0a6c2006fc0377210974490018d&amp;dn=Game+of+Thrones+S04E04+HDTV+x264+AAC+E-Subs+%5BGWC%5D.mp4&amp;tr=udp%3A%2F%2Ftracker.openbittorrent.com%3A80&amp;tr=udp%3A%2F%2Fopen.demonii.com%3A1337&amp;tr=udp%3A%2F%2Ftracker.coppersurfer.tk%3A6969&amp;tr=udp%3A%2F%2Fexodus.desync.com%3A6969","seeders":6,"leechers":0,"uploader":"canc232","files":1,"time":1398670053,"description":"Game of Thrones S04E04 HDTV x264 AAC E-Subs [GWC] \n\n\nSTORYLINE :\nNine noble families fight for control of the mythical land of Westeros. Political and sexual intrigue is pervasive. Robert Baratheon, King of Westeros, asks his old friend Eddard, Lord Stark, to serve as Hand of the King, or highest official. Secretly warned that the previous Hand was assassinated, Eddard accepts in order to investigate further. Meanwhile the Queen's family, the Lannisters, may be hatching a plot to take power. Across the sea, the last members of the previous and deposed ruling family, the Targaryens, are also scheming to regain the throne. The friction between the houses Stark, Lannister, Baratheon and Targaryen and with the remaining great houses Greyjoy, Tully, Arryn,Tyrell and Martell leads to full-scale war. All while a very ancient evil awakens in the farthest north. Amidst the war and political confusion, a neglected military order of misfits, the Night's Watch, is all that stands between the realms of men and icy horrors beyond. \n\n\nSCREENS : &lt;a href=&quot;\nhttp://i.imgur.com/ty8jGi0.jpg&quot; rel=&quot;nofollow&quot; target=&quot;_NEW&quot;&gt;\nhttp://i.imgur.com/ty8jGi0.jpg&lt;/a&gt; &lt;a href=&quot;\nhttp://i.imgur.com/mnDT8kK.jpg&quot; rel=&quot;nofollow&quot; target=&quot;_NEW&quot;&gt;\nhttp://i.imgur.com/mnDT8kK.jpg&lt;/a&gt; &lt;a href=&quot;\nhttp://i.imgur.com/mQZqS7q.jpg&quot; rel=&quot;nofollow&quot; target=&quot;_NEW&quot;&gt;\nhttp://i.imgur.com/mQZqS7q.jpg&lt;/a&gt;\n\n\nMEDIA INFO :\nGeneral  \nFormat : MPEG-4 \nFormat profile : Base Media \nFile size : 135 MiB \nDuration : 55mn 2s \nOverall bit rate mode : Variable \nOverall bit rate : 342 Kbps \n\nVideo \nFormat : AVC \nFormat profile : &lt;a class=&quot;__cf_email__&quot; href=&quot;/cdn-cgi/l/email-protection&quot; data-cfemail=&quot;236b4a444b636f100d13&quot;&gt;[email&amp;#160;protected]&lt;/a&gt;&lt;script cf-hash='f9e31' type=&quot;text/javascript&quot;&gt;\n/* &lt;![CDATA[ */!function(){try{var t=&quot;currentScript&quot;in document?document.currentScript:function(){for(var t=document.getElementsByTagName(&quot;script&quot;),e=t.length;e--;)if(t[e].getAttribute(&quot;cf-hash&quot;))return t[e]}();if(t&amp;&amp;t.previousSibling){var e,r,n,i,c=t.previousSibling,a=c.getAttribute(&quot;data-cfemail&quot;);if(a){for(e=&quot;&quot;,r=parseInt(a.substr(0,2),16),n=2;a.length-n;n+=2)i=parseInt(a.substr(n,2),16)^r,e+=String.fromCharCode(i);e=document.createTextNode(e),c.parentNode.replaceChild(e,c)}}}catch(u){}}();/* ]]&gt; */&lt;/script&gt; \nFormat settings, CABAC : Yes \nFormat settings, ReFrames : 4 frames \nDuration : 55mn 2s \nBit rate : 279 Kbps \nMaximum bit rate : 5 957 Kbps \nWidth : 720 pixels \nHeight : 404 pixels \nDisplay aspect ratio : 16:9 \nFrame rate mode : Constant \nFrame rate : 23.976 fps \nStream size : 110 MiB (81%) \nTitle : Game of Thrones S04E04 HDTV x264 AAC E-Subs [GWC] \nWriting library : x264 core \n\nAudio \nFormat : AAC \nFormat profile : HE-AAC / LC \nDuration : 55mn 2s \nBit rate mode : Variable \nChannel(s) : 2 channels \nSampling rate : 48.0 KHz / 24.0 KHz \nStream size : 23.6 MiB (18%) \nLanguage : English \n\nText \nFormat : Timed Text \nTitle : English Subtitle by honeybunny \nLanguage : English ","torrent":{"xt":"urn:btih:f4c85f9f9652e0a6c2006fc0377210974490018d","amp;dn":"Game+of+Thrones+S04E04+HDTV+x264+AAC+E-Subs+%5BGWC%5D.mp4","amp;tr":["udp%3A%2F%2Ftracker.openbittorrent.com%3A80","udp%3A%2F%2Fopen.demonii.com%3A1337","udp%3A%2F%2Ftracker.coppersurfer.tk%3A6969","udp%3A%2F%2Fexodus.desync.com%3A6969"],"infoHash":"f4c85f9f9652e0a6c2006fc0377210974490018d","infoHashBuffer":{"type":"Buffer","data":[244,200,95,159,150,82,224,166,194,0,111,192,55,114,16,151,68,144,1,141]},"announce":[],"urlList":[]}}